<?xml version="1.0" encoding="utf-8"?>
<!-- Generator: Adobe Illustrator 21.1.0, SVG Export Plug-In . SVG Version: 6.00 Build 0)  -->
<svg version="1.1" id="Camada_1" xmlns="http://www.w3.org/2000/svg" xmlns:xlink="http://www.w3.org/1999/xlink" x="0px" y="0px"
	 viewBox="0 0 62 79" style="enable-background:new 0 0 62 79;" xml:space="preserve">
<style type="text/css">
	.st0{fill:none;stroke:#9D7704;stroke-width:2.943;stroke-miterlimit:10;}
	.st1{fill:none;stroke:#FFC433;stroke-width:2.943;stroke-miterlimit:10;}
	.st2{fill:none;stroke:#9D7704;stroke-width:2.2186;stroke-miterlimit:10;}
	.st3{fill:none;stroke:#FFC433;stroke-width:2.2186;stroke-miterlimit:10;}
	.st4{fill:none;stroke:#9D7704;stroke-width:6.8038;stroke-miterlimit:10;}
	.st5{fill:none;stroke:#FFC433;stroke-width:6.8038;stroke-miterlimit:10;}
</style>
<g>
	<g>
		<path class="st0" d="M37,13.2c-1.2-1.9-2.7-3.6-4.5-4.9c-1.8-1.3-3.9-2.3-6-2.8C24.3,5,22,4.9,19.8,5.3c-2.2,0.3-4.3,1.1-6.2,2.3
			c-1.9,1.2-3.6,2.7-4.9,4.5c-1.3,1.8-2.3,3.9-2.8,6c-0.5,2.2-0.6,4.4-0.3,6.6C6,26.9,6.7,29,7.9,30.9c1.2,1.9,2.7,3.6,4.5,4.9
			c1.8,1.3,3.9,2.3,6,2.8c2.2,0.5,4.4,0.6,6.6,0.3c2.2-0.3,4.3-1.1,6.2-2.3c1.9-1.2,3.6-2.7,4.9-4.5c1.3-1.8,2.3-3.9,2.8-6
			c0.5-2.2,0.6-4.4,0.3-6.6C38.9,17.3,38.1,15.1,37,13.2"/>
		<path class="st1" d="M38.6,12.2c-1.3-2.1-3-4-5-5.5c-2-1.5-4.3-2.5-6.7-3.1C24.5,3.1,22,3,19.5,3.3c-2.5,0.4-4.8,1.3-7,2.5
			c-2.1,1.3-4,3-5.5,5c-1.5,2-2.5,4.3-3.1,6.7C3.4,20,3.3,22.6,3.7,25c0.4,2.5,1.3,4.8,2.5,7c1.3,2.1,3,4,5,5.5
			c2,1.5,4.3,2.5,6.7,3.1c2.4,0.6,4.9,0.7,7.4,0.3c2.5-0.4,4.8-1.3,7-2.5c2.1-1.3,4-3,5.5-5c1.5-2,2.5-4.3,3.1-6.7
			c0.6-2.4,0.7-4.9,0.3-7.4C40.8,16.7,39.9,14.3,38.6,12.2"/>
	</g>
	<g>
		<line class="st2" x1="33.4" y1="38.6" x2="42.2" y2="53.2"/>
		<line class="st3" x1="32.1" y1="39.4" x2="41" y2="53.9"/>
	</g>
	<g>
		<line class="st4" x1="51.7" y1="74.4" x2="36.6" y2="49.5"/>
		<line class="st5" x1="55.6" y1="72" x2="40.5" y2="47.2"/>
	</g>
</g>
</svg>
